<?xml version="1.0" standalone="no"?>
<!DOCTYPE svg PUBLIC "-//W3C//DTD SVG 20010904//EN"
 "http://www.w3.org/TR/2001/REC-SVG-20010904/DTD/svg10.dtd">
<svg version="1.0" xmlns="http://www.w3.org/2000/svg"
 width="1200.000000pt" height="630.000000pt" viewBox="0 0 1200.000000 630.000000"
 preserveAspectRatio="xMidYMid meet">

<g transform="translate(0.000000,630.000000) scale(0.100000,-0.100000)"
fill="#000000" stroke="none">
<path d="M1830 3804 c-208 -54 -382 -215 -463 -426 -29 -79 -31 -90 -31 -228
-1 -133 1 -151 26 -218 39 -108 84 -178 168 -262 132 -132 273 -190 465 -190
195 0 334 57 471 195 142 142 201 297 192 508 -8 185 -64 312 -198 448 -83 83
-191 145 -305 174 -75 19 -251 19 -325 -1z m190 -114 c0 -29 -1 -30 -47 -30
-116 0 -240 -56 -333 -149 -201 -203 -202 -523 -1 -721 107 -106 214 -150 361
-150 128 0 237 43 333 130 90 82 148 189 163 299 l7 51 -174 2 -174 3 0 25 0
25 200 0 200 0 -3 -65 c-13 -330 -339 -584 -662 -516 -90 19 -198 71 -261 125
-59 52 -133 160 -159 233 -129 370 129 753 518 767 29 1 32 -2 32 -29z m-201
-255 c31 -15 41 -33 41 -70 0 -37 -10 -55 -41 -71 -36 -18 -73 -10 -99 23 -28
36 -25 70 9 104 33 33 50 35 90 14z m201 -255 l0 -269 68 -3 c65 -3 67 -4 70
-30 l3 -28 -95 0 -96 0 0 300 0 300 25 0 25 0 0 -270z"/>
<path d="M3930 3599 c-157 -28 -261 -128 -301 -289 -17 -70 -17 -238 1 -310
36 -153 130 -247 278 -279 121 -25 316 -5 417 45 l40 19 3 213 2 212 -170 0
-170 0 0 -75 0 -74 83 -3 82 -3 3 -78 c3 -76 3 -77 -25 -88 -15 -6 -69 -12
-118 -13 -79 -1 -97 2 -140 25 -41 21 -55 35 -80 84 -28 54 -30 66 -30 164 0
132 19 195 75 244 85 77 254 72 342 -10 l27 -25 60 53 c56 49 60 55 48 74 -21
31 -103 83 -160 100 -66 20 -196 27 -267 14z"/>
<path d="M10140 3160 l0 -440 80 0 80 0 2 227 3 228 29 14 c32 15 88 18 125 6
43 -13 51 -57 51 -275 l0 -200 80 0 80 0 0 243 c0 232 -1 245 -22 287 -33 64
-66 84 -147 88 -61 4 -126 -8 -188 -34 -10 -4 -13 28 -13 145 l0 151 -80 0
-80 0 0 -440z"/>
<path d="M2970 3155 l0 -435 305 0 306 0 -3 81 -3 81 -202 -2 -203 -1 0 356 0
355 -100 0 -100 0 0 -435z"/>
<path d="M4951 3568 c-4 -13 -70 -198 -146 -413 -75 -214 -141 -400 -146 -412
-8 -23 -8 -23 85 -23 l93 0 34 110 34 110 166 0 167 0 7 -27 c3 -16 18 -65 31
-110 l25 -83 100 0 c54 0 99 3 99 8 0 4 -65 198 -145 431 -80 233 -145 425
-145 427 0 2 -56 4 -125 4 -121 0 -126 -1 -134 -22z m143 -135 c3 -10 25 -88
50 -174 25 -86 46 -159 46 -163 0 -3 -53 -6 -119 -6 l-118 0 29 98 c70 236 79
262 93 262 7 0 16 -8 19 -17z"/>
<path d="M5580 3155 l0 -435 85 0 85 0 0 435 0 435 -85 0 -85 0 0 -435z"/>
<path d="M6090 3155 l0 -435 85 0 85 0 0 165 0 166 70 -3 70 -3 75 -160 74
-160 96 -3 c52 -1 95 0 95 4 0 4 -41 86 -91 183 l-92 175 24 16 c92 60 121
116 121 232 0 92 -22 148 -75 195 -60 53 -114 63 -339 63 l-198 0 0 -435z
m345 285 c60 -14 95 -58 95 -120 0 -41 -5 -56 -29 -82 -29 -33 -30 -33 -135
-36 l-106 -4 0 126 0 126 68 0 c37 0 85 -5 107 -10z"/>
<path d="M6893 3319 c-64 -25 -115 -81 -140 -153 -20 -60 -23 -218 -5 -282 24
-84 84 -143 166 -165 58 -16 230 -6 286 16 69 27 72 32 54 91 l-15 52 -52 -20
c-69 -27 -180 -29 -224 -5 -38 20 -63 63 -63 107 l0 30 190 0 190 0 0 57 c0
95 -27 171 -80 223 -27 27 -62 50 -86 58 -62 18 -161 14 -221 -9z m184 -111
c19 -16 43 -70 43 -98 0 -19 -6 -20 -110 -20 l-110 0 0 25 c0 40 28 85 63 101
35 16 90 12 114 -8z"/>
<path d="M7470 3321 c-94 -34 -141 -112 -121 -202 19 -84 74 -129 185 -154 92
-21 136 -46 136 -79 0 -35 -35 -56 -95 -56 -52 0 -135 19 -172 38 -20 11 -23
8 -42 -49 l-20 -60 43 -20 c24 -10 77 -24 119 -29 201 -28 335 53 324 198 -7
93 -57 137 -194 171 -113 29 -135 42 -131 84 5 56 86 73 198 42 30 -9 61 -17
68 -18 15 -2 56 89 47 103 -12 19 -107 42 -195 46 -77 4 -105 1 -150 -15z"/>
<path d="M8064 3326 c-64 -20 -111 -62 -141 -124 -26 -53 -28 -66 -28 -182 0
-114 2 -130 27 -182 46 -99 124 -133 282 -126 101 5 216 37 216 59 0 6 -5 31
-11 55 -10 39 -15 45 -33 40 -196 -51 -276 -40 -310 44 -33 84 -41 80 175 80
l191 0 -4 88 c-3 75 -8 96 -35 143 -45 81 -100 112 -206 116 -50 2 -98 -2
-123 -11z m179 -136 c18 -21 27 -41 27 -65 l0 -35 -110 0 c-105 0 -110 1 -110
21 0 12 8 37 17 56 32 68 124 80 176 23z"/>
<path d="M8642 3330 c-18 -4 -53 -15 -76 -24 l-44 -17 15 -52 c9 -29 16 -53
17 -54 1 -1 26 7 56 17 30 11 81 19 112 20 49 0 62 -4 87 -27 18 -17 31 -40
33 -58 3 -29 2 -30 -47 -33 -212 -10 -295 -69 -295 -209 1 -132 65 -188 205
-181 58 3 80 9 113 31 l41 27 35 -24 c38 -25 113 -41 146 -31 17 5 20 15 20
66 0 45 -3 59 -15 59 -27 0 -35 39 -35 183 0 208 -21 263 -112 302 -40 16
-195 20 -256 5z m204 -390 c0 -25 -2 -53 -4 -63 -6 -25 -53 -47 -100 -47 -49
0 -76 27 -75 76 2 62 36 84 123 81 l55 -2 1 -45z"/>
<path d="M9346 3311 l-56 -30 0 25 c0 23 -2 24 -80 24 l-80 0 0 -305 0 -305
85 0 85 0 0 214 0 215 28 19 c45 32 92 40 176 29 15 -2 22 10 36 61 l18 63
-25 10 c-50 19 -128 11 -187 -20z"/>
<path d="M9731 3321 c-76 -26 -102 -49 -136 -116 -29 -57 -30 -66 -30 -185 0
-114 2 -130 26 -181 29 -62 67 -94 136 -115 64 -19 205 -17 273 5 54 17 55 18
53 52 -1 19 -7 47 -12 62 l-10 26 -43 -15 c-61 -22 -155 -22 -196 0 -53 28
-75 90 -70 192 5 88 19 121 64 151 37 24 111 22 161 -4 l41 -22 41 50 42 49
-33 20 c-83 51 -211 64 -307 31z"/>
</g>
</svg>
